<svg width="32" height="32" viewBox="0 0 32 32" fill="none" xmlns="http://www.w3.org/2000/svg">
<path d="M16 0C7.17675 0 0 7.17675 0 16C0 24.8233 7.17675 32 16 32C24.8233 32 32 24.8233 32 16C32 7.17675 24.8233 0 16 0ZM16 30.9343C7.7655 30.9343 1.06574 24.2345 1.06574 16C1.06574 7.7655 7.7655 1.06574 16 1.06574C24.2345 1.06574 30.9343 7.7655 30.9343 16C30.9343 24.2345 24.2345 30.9343 16 30.9343Z" fill="white"/>
<g clip-path="url(#clip0_110_1525)">
<path d="M15.9661 11.8748C15.1569 11.8748 14.3659 12.1148 13.6931 12.5643C13.0203 13.0139 12.4959 13.6529 12.1862 14.4004C11.8766 15.148 11.7956 15.9707 11.9534 16.7643C12.1113 17.5579 12.5009 18.2869 13.0731 18.8591C13.6453 19.4313 14.3743 19.8209 15.1679 19.9788C15.9616 20.1367 16.7842 20.0556 17.5318 19.746C18.2794 19.4363 18.9184 18.9119 19.3679 18.2391C19.8175 17.5663 20.0574 16.7753 20.0574 15.9661C20.0587 15.4285 19.9538 14.8959 19.7487 14.3989C19.5435 13.9019 19.2422 13.4504 18.862 13.0702C18.4819 12.69 18.0303 12.3887 17.5333 12.1836C17.0364 11.9784 16.5038 11.8735 15.9661 11.8748ZM15.9661 18.6305C15.4392 18.6305 14.924 18.4742 14.4859 18.1814C14.0477 17.8887 13.7062 17.4726 13.5046 16.9857C13.3029 16.4989 13.2502 15.9632 13.353 15.4463C13.4558 14.9295 13.7095 14.4548 14.0821 14.0821C14.4548 13.7095 14.9295 13.4558 15.4463 13.353C15.9632 13.2502 16.4989 13.3029 16.9857 13.5046C17.4726 13.7062 17.8887 14.0477 18.1814 14.4859C18.4742 14.924 18.6305 15.4392 18.6305 15.9661C18.6305 16.6727 18.3497 17.3504 17.8501 17.8501C17.3504 18.3497 16.6727 18.6305 15.9661 18.6305ZM21.185 11.7052C21.185 11.9025 21.1265 12.0955 21.0169 12.2596C20.9072 12.4237 20.7514 12.5516 20.569 12.6271C20.3867 12.7026 20.186 12.7224 19.9925 12.6839C19.7989 12.6454 19.6211 12.5503 19.4815 12.4108C19.342 12.2712 19.2469 12.0934 19.2084 11.8998C19.1699 11.7063 19.1897 11.5056 19.2652 11.3233C19.3408 11.141 19.4687 10.9851 19.6328 10.8755C19.7969 10.7658 19.9898 10.7073 20.1871 10.7073C20.4518 10.7073 20.7056 10.8124 20.8928 10.9996C21.0799 11.1867 21.185 11.4405 21.185 11.7052ZM23.8893 12.703C23.9183 11.4625 23.4556 10.2608 22.602 9.36015C21.7061 8.49568 20.5039 8.02195 19.2591 8.04295C17.9619 7.98308 13.9704 7.98308 12.6731 8.04295C11.433 8.0161 10.2321 8.47853 9.33022 9.33022C8.47666 10.2309 8.01393 11.4326 8.04295 12.6731C7.98308 13.9704 7.98308 17.9619 8.04295 19.2591C8.01393 20.4997 8.47666 21.7013 9.33022 22.602C10.2321 23.4537 11.433 23.9161 12.6731 23.8893C13.9903 23.9691 17.9419 23.9691 19.2591 23.8893C20.4997 23.9183 21.7013 23.4556 22.602 22.602C23.4556 21.7013 23.9183 20.4997 23.8893 19.2591C23.9492 17.9619 23.9492 13.9704 23.8893 12.6731V12.703ZM22.1929 20.6861C22.0574 21.0293 21.8529 21.341 21.5919 21.6019C21.331 21.8628 21.0193 22.0674 20.6761 22.2029C19.127 22.5161 17.5433 22.6234 15.9661 22.5222C14.3922 22.6236 12.8118 22.5162 11.2661 22.2029C10.9229 22.0674 10.6112 21.8628 10.3503 21.6019C10.0893 21.341 9.88481 21.0293 9.74933 20.6861C9.33022 19.6283 9.42003 17.1336 9.42003 15.9761C9.42003 14.8186 9.33022 12.3139 9.74933 11.2661C9.88099 10.9195 10.0841 10.6045 10.3454 10.3414C10.6067 10.0784 10.9204 9.87328 11.2661 9.73935C12.8118 9.42599 14.3922 9.31862 15.9661 9.42003C17.5433 9.31879 19.127 9.42615 20.6761 9.73935C21.0193 9.87483 21.331 10.0794 21.5919 10.3403C21.8529 10.6012 22.0574 10.9129 22.1929 11.2561C22.612 12.3139 22.5122 14.8086 22.5122 15.9661C22.5122 17.1237 22.612 19.6283 22.1929 20.6761V20.6861Z" fill="white"/>
</g>
<defs>
<clipPath id="clip0_110_1525">
<rect width="15.9661" height="15.9661" fill="white" transform="translate(7.98242 7.98291)"/>
</clipPath>
</defs>
</svg>
