<svg width="32" height="32" viewBox="0 0 32 32" fill="none" xmlns="http://www.w3.org/2000/svg">
<g clip-path="url(#clip0_110_1519)">
<path d="M16.0008 -0.0341797C7.1588 -0.0341797 -0.0332031 7.15782 -0.0332031 15.9998C-0.0332031 24.8418 7.1588 32.0338 16.0008 32.0338C24.8428 32.0338 32.0348 24.8418 32.0348 15.9998C32.0348 7.15782 24.8428 -0.0341797 16.0008 -0.0341797ZM16.0008 30.9658C7.7488 30.9658 1.0348 24.2518 1.0348 15.9998C1.0348 7.74782 7.7488 1.03382 16.0008 1.03382C24.2528 1.03382 30.9668 7.74782 30.9668 15.9998C30.9668 24.2518 24.2528 30.9658 16.0008 30.9658Z" fill="white"/>
<g clip-path="url(#clip1_110_1519)">
<path d="M16.6003 22H13.9336V14H16.6003V15.3333C16.881 14.9762 17.2373 14.6856 17.6436 14.4824C18.0499 14.2792 18.4961 14.1684 18.9503 14.158C19.7445 14.1624 20.5046 14.4816 21.0639 15.0456C21.6231 15.6096 21.9359 16.3724 21.9336 17.1667V22H19.2669V17.5C19.2153 17.1397 19.0354 16.8102 18.7601 16.572C18.4849 16.3339 18.1329 16.2032 17.7689 16.204C17.606 16.2091 17.4458 16.2471 17.298 16.3157C17.1502 16.3843 17.0177 16.482 16.9085 16.6031C16.7994 16.7241 16.7158 16.8659 16.6629 17.0201C16.6099 17.1742 16.5886 17.3374 16.6003 17.5V22ZM12.6003 22H9.93359V14H12.6003V22ZM11.2669 12.6667C10.9133 12.6667 10.5742 12.5262 10.3241 12.2761C10.0741 12.0261 9.93359 11.687 9.93359 11.3333C9.93359 10.9797 10.0741 10.6406 10.3241 10.3905C10.5742 10.1405 10.9133 10 11.2669 10C11.6205 10 11.9597 10.1405 12.2097 10.3905C12.4598 10.6406 12.6003 10.9797 12.6003 11.3333C12.6003 11.687 12.4598 12.0261 12.2097 12.2761C11.9597 12.5262 11.6205 12.6667 11.2669 12.6667Z" fill="white"/>
</g>
</g>
<defs>
<clipPath id="clip0_110_1519">
<rect width="32" height="32" fill="white"/>
</clipPath>
<clipPath id="clip1_110_1519">
<rect width="12" height="12" fill="white" transform="translate(9.93359 10)"/>
</clipPath>
</defs>
</svg>
