<svg width="120" height="121" viewBox="0 0 120 121" fill="none" xmlns="http://www.w3.org/2000/svg">
<g clip-path="url(#clip0_1_1271)">
<path d="M71.239 105.67C71.7824 105.536 72.2653 105.54 72.6878 105.682C73.1025 105.827 73.4538 106.082 73.7419 106.447C74.03 106.812 74.2568 107.263 74.4223 107.799L73.3357 108.401C73.2299 108.073 73.0997 107.763 72.9452 107.472C72.783 107.183 72.5838 106.96 72.3476 106.804C72.1133 106.656 71.8292 106.624 71.4954 106.706C71.1539 106.791 70.9208 106.947 70.7961 107.176C70.6656 107.414 70.6445 107.712 70.7328 108.069C70.8385 108.496 71.02 108.813 71.2775 109.021C71.5368 109.237 71.8466 109.441 72.2069 109.632L74.1361 110.637C74.5138 110.832 74.8158 111.07 75.0421 111.352C75.2702 111.642 75.4429 112.023 75.56 112.497C75.7309 113.188 75.6655 113.772 75.3637 114.25C75.062 114.729 74.5695 115.052 73.8865 115.221C73.5139 115.314 73.1754 115.344 72.8709 115.312C72.5607 115.29 72.2874 115.201 72.0512 115.045C71.8072 114.891 71.5925 114.673 71.407 114.389C71.2156 114.115 71.0497 113.777 70.9091 113.376L71.9519 112.796C72.0521 113.101 72.1687 113.373 72.302 113.612C72.4371 113.858 72.6132 114.037 72.8301 114.148C73.0412 114.269 73.3098 114.289 73.6358 114.208C73.9618 114.128 74.1959 113.975 74.338 113.75C74.4743 113.536 74.5002 113.257 74.4157 112.916C74.3446 112.629 74.2395 112.403 74.1002 112.24C73.9532 112.079 73.7471 111.928 73.4817 111.788L71.5408 110.785C71.1069 110.563 70.7004 110.268 70.3211 109.901C69.9438 109.541 69.6822 109.066 69.5362 108.476C69.421 108.01 69.4181 107.583 69.5277 107.193C69.6391 106.811 69.8436 106.489 70.1409 106.226C70.4306 105.965 70.7966 105.78 71.239 105.67Z" fill="#B68C2D"/>
<path d="M65.8262 106.685C66.5251 106.598 67.0784 106.67 67.4862 106.902C67.894 107.133 68.1965 107.491 68.3938 107.975C68.592 108.466 68.7331 109.049 68.817 109.724L69.6126 116.121L68.3262 116.281L67.5231 109.825C67.4718 109.412 67.3971 109.038 67.299 108.703C67.2009 108.369 67.0482 108.114 66.8409 107.938C66.6256 107.763 66.3313 107.699 65.9581 107.745C65.5769 107.793 65.3074 107.927 65.1494 108.148C64.9914 108.369 64.9059 108.654 64.8928 109.003C64.8797 109.351 64.8988 109.732 64.9502 110.145L65.7532 116.601L64.4786 116.759L63.683 110.363C63.599 109.688 63.593 109.088 63.6647 108.563C63.7375 108.046 63.9432 107.625 64.2819 107.301C64.6126 106.977 65.1274 106.772 65.8262 106.685Z" fill="#B68C2D"/>
<path d="M62.2221 107.188L62.0643 116.91L61.1401 116.895L58.4844 110.393L58.3796 116.85L57.2514 116.832L57.4092 107.11L58.2734 107.124L60.9621 113.807L61.0699 107.17L62.2221 107.188Z" fill="#B68C2D"/>
<path d="M53.8756 106.651C54.4315 106.72 54.8814 106.896 55.2252 107.181C55.5611 107.464 55.7983 107.828 55.9368 108.272C56.0754 108.717 56.1262 109.219 56.0892 109.779L54.8581 109.953C54.8765 109.609 54.8657 109.273 54.8255 108.945C54.7774 108.617 54.6709 108.338 54.5058 108.108C54.3398 107.885 54.086 107.753 53.7445 107.711C53.395 107.668 53.1212 107.731 52.9229 107.9C52.7156 108.076 52.5894 108.346 52.5443 108.712C52.4902 109.148 52.5463 109.51 52.7124 109.797C52.8776 110.091 53.0944 110.392 53.3628 110.7L54.8061 112.33C55.0894 112.647 55.2864 112.978 55.397 113.322C55.5067 113.674 55.5315 114.093 55.4716 114.577C55.3842 115.284 55.1139 115.807 54.6607 116.146C54.2076 116.485 53.6316 116.611 52.9327 116.525C52.5514 116.478 52.2243 116.385 51.9511 116.246C51.6691 116.114 51.4455 115.934 51.2804 115.704C51.1074 115.473 50.985 115.191 50.9131 114.86C50.8322 114.535 50.798 114.16 50.8103 113.734L51.9923 113.566C51.9768 113.887 51.9886 114.183 52.0277 114.453C52.0658 114.732 52.1663 114.962 52.3293 115.144C52.4834 115.332 52.7273 115.447 53.0608 115.488C53.3944 115.53 53.6678 115.471 53.881 115.312C54.0852 115.159 54.209 114.909 54.2522 114.559C54.2886 114.265 54.2709 114.017 54.1991 113.815C54.1195 113.611 53.9807 113.397 53.7829 113.171L52.3276 111.539C52.0016 111.176 51.7271 110.755 51.5041 110.276C51.2801 109.805 51.2055 109.268 51.2801 108.664C51.3391 108.188 51.4894 107.787 51.7312 107.462C51.972 107.145 52.2784 106.917 52.6504 106.777C53.0145 106.637 53.4229 106.595 53.8756 106.651Z" fill="#B68C2D"/>
<path d="M50.8344 106.287L48.6257 115.756L44.9551 114.899L45.1842 113.917L47.5338 114.465L48.2646 111.333L46.3591 110.888L46.5773 109.953L48.4827 110.397L49.2926 106.925L46.9195 106.372L47.1404 105.425L50.8344 106.287Z" fill="#B68C2D"/>
<path d="M45.3164 104.823L42.4878 113.066L44.0432 113.6L43.716 114.554L39.3675 113.061L39.6947 112.108L41.2048 112.626L44.0334 104.383L45.3164 104.823Z" fill="#B68C2D"/>
<path d="M37.5456 101.349C38.0393 101.614 38.3951 101.941 38.613 102.33C38.8239 102.716 38.9137 103.141 38.8825 103.605C38.8513 104.07 38.7173 104.556 38.4808 105.065L37.2698 104.783C37.4113 104.469 37.5224 104.152 37.6032 103.832C37.677 103.508 37.6784 103.209 37.6075 102.935C37.5328 102.668 37.3438 102.453 37.0406 102.29C36.7303 102.124 36.4522 102.084 36.2063 102.17C35.9495 102.259 35.7341 102.466 35.5601 102.79C35.3521 103.178 35.2738 103.536 35.3253 103.863C35.3729 104.197 35.4665 104.556 35.6058 104.94L36.3635 106.981C36.5132 107.379 36.5775 107.758 36.5564 108.119C36.5315 108.487 36.4037 108.887 36.1729 109.317C35.8362 109.944 35.3954 110.335 34.8504 110.487C34.3054 110.64 33.7226 110.55 33.102 110.217C32.7635 110.035 32.4919 109.83 32.2872 109.603C32.0717 109.378 31.9285 109.129 31.8576 108.854C31.7797 108.577 31.767 108.27 31.8196 107.935C31.8613 107.603 31.9648 107.241 32.13 106.848L33.293 107.118C33.1629 107.412 33.0671 107.692 33.0058 107.958C32.9406 108.232 32.9513 108.483 33.0378 108.711C33.1136 108.942 33.2995 109.138 33.5957 109.296C33.8919 109.455 34.1681 109.499 34.4243 109.428C34.6697 109.36 34.8757 109.17 35.0421 108.86C35.1821 108.599 35.2551 108.361 35.2613 108.147C35.2604 107.928 35.2085 107.678 35.1056 107.396L34.3374 105.349C34.1643 104.893 34.0603 104.401 34.0253 103.874C33.9865 103.354 34.1109 102.826 34.3984 102.29C34.6254 101.866 34.9102 101.547 35.253 101.331C35.5919 101.123 35.96 101.02 36.3573 101.025C36.7476 101.025 37.1437 101.133 37.5456 101.349Z" fill="#B68C2D"/>
<path d="M32.8528 98.4763C33.3909 98.8569 33.7465 99.2659 33.9195 99.7033C34.0925 100.141 34.111 100.602 33.9749 101.086C33.8343 101.578 33.5783 102.086 33.2069 102.611L31.0696 105.632C30.6982 106.157 30.3114 106.558 29.909 106.835C29.4955 107.113 29.0616 107.24 28.6074 107.214C28.1419 107.19 27.6402 106.987 27.1021 106.607C26.564 106.226 26.2094 105.823 26.0383 105.396C25.8672 104.97 25.8451 104.521 25.9718 104.05C26.092 103.574 26.3378 103.073 26.7091 102.548L28.8534 99.5166C29.2201 98.9982 29.6126 98.5964 30.0308 98.3114C30.4424 98.0217 30.8823 97.88 31.3504 97.8862C31.8139 97.899 32.3147 98.0957 32.8528 98.4763ZM32.2332 99.3524C31.9379 99.1435 31.673 99.0447 31.4386 99.0561C31.1994 99.074 30.9771 99.1727 30.7714 99.3521C30.5611 99.5381 30.3515 99.7787 30.1426 100.074L27.6711 103.568C27.4622 103.864 27.3098 104.135 27.2137 104.382C27.1131 104.636 27.0987 104.872 27.1708 105.09C27.2381 105.315 27.4195 105.532 27.7148 105.74C28.0101 105.949 28.2782 106.05 28.5193 106.044C28.7491 106.039 28.9668 105.947 29.1725 105.767C29.3735 105.595 29.5785 105.36 29.7873 105.065L32.2589 101.571C32.4678 101.276 32.6248 100.998 32.7302 100.738C32.8308 100.484 32.8498 100.241 32.787 100.01C32.7131 99.7804 32.5285 99.5612 32.2332 99.3524Z" fill="#B68C2D"/>
<path d="M29.9589 96.3913L23.4445 103.586L21.9966 102.275C21.517 101.841 21.1792 101.417 20.9833 101.002C20.782 100.594 20.736 100.18 20.8454 99.762C20.9434 99.3443 21.1988 98.9074 21.6117 98.4515C21.8637 98.1731 22.1238 97.9453 22.3921 97.768C22.6551 97.5966 22.9241 97.4899 23.1992 97.448C23.4688 97.4119 23.7424 97.4549 24.02 97.5769L26.2637 93.0456L27.2319 93.9222L25.1173 98.1502L25.899 98.8579L28.9552 95.4825L29.9589 96.3913ZM25.2476 99.5774L24.8656 99.2316C24.5814 98.9742 24.3183 98.8007 24.0763 98.7109C23.8343 98.6211 23.5941 98.6245 23.3557 98.7212C23.1173 98.8179 22.8587 99.0202 22.5799 99.3281C22.1992 99.7485 22.0027 100.12 21.9905 100.443C21.9729 100.772 22.1921 101.143 22.6481 101.556L23.0922 101.958L25.2476 99.5774Z" fill="#B68C2D"/>
<path d="M25.6231 92.3116L18.3141 98.7237L15.8284 95.8904L16.5864 95.2254L18.1775 97.0391L20.5958 94.9176L19.3055 93.4468L20.0274 92.8135L21.3177 94.2843L23.9977 91.9332L22.3907 90.1014L23.1216 89.4602L25.6231 92.3116Z" fill="#B68C2D"/>
<path d="M22.6152 88.8302L14.6331 94.3821L14.1053 93.6233L17.8306 87.6692L12.5289 91.3568L11.8846 90.4304L19.8667 84.8786L20.3602 85.5881L16.5077 91.6745L21.9572 87.8842L22.6152 88.8302Z" fill="#B68C2D"/>
<path d="M18.753 82.8681L11.0764 86.9929L11.8547 88.4416L10.9665 88.9188L8.79049 84.869L9.6787 84.3917L10.4343 85.7981L18.111 81.6732L18.753 82.8681Z" fill="#B68C2D"/>
<path d="M16.2148 77.2322C16.4565 77.8422 16.5305 78.3767 16.4368 78.8356C16.3431 79.2945 16.1078 79.689 15.7307 80.0191C15.3462 80.3522 14.8563 80.6366 14.2611 80.8724L10.835 82.2295C10.2398 82.4653 9.69923 82.5891 9.21326 82.6008C8.7169 82.6081 8.28639 82.4774 7.92173 82.2087C7.54668 81.9355 7.23831 81.4938 6.99664 80.8837C6.75497 80.2737 6.67872 79.7444 6.7679 79.2959C6.85707 78.8474 7.08275 78.4611 7.44494 78.1368C7.80418 77.8052 8.2814 77.5214 8.8766 77.2857L12.3139 75.9241C12.9016 75.6912 13.4474 75.5697 13.9512 75.5595C14.4521 75.5419 14.896 75.663 15.283 75.9228C15.6625 76.1856 15.9731 76.6221 16.2148 77.2322ZM15.2215 77.6256C15.0889 77.2908 14.9218 77.0644 14.7201 76.9463C14.5109 76.8312 14.2718 76.7925 14.0027 76.8302C13.7262 76.8709 13.4205 76.9576 13.0857 77.0902L9.12389 78.6596C8.78909 78.7922 8.51444 78.9354 8.29994 79.0893C8.078 79.246 7.93768 79.435 7.87899 79.6563C7.81285 79.8804 7.8461 80.1599 7.97872 80.4947C8.11135 80.8295 8.27998 81.0597 8.48464 81.1852C8.6789 81.3062 8.91058 81.3478 9.17968 81.3101C9.44134 81.2753 9.73957 81.1916 10.0744 81.059L14.0362 79.4896C14.371 79.357 14.653 79.2108 14.8824 79.0511C15.1044 78.8943 15.2521 78.7023 15.3257 78.4752C15.3889 78.2436 15.3542 77.9604 15.2215 77.6256Z" fill="#B68C2D"/>
<path d="M14.2283 71.5019L4.69979 73.3493L4.32803 71.4318C4.20487 70.7966 4.18927 70.2544 4.28122 69.8053C4.36532 69.3578 4.57659 68.9994 4.91501 68.7304C5.24407 68.455 5.71054 68.2588 6.3144 68.1417C6.683 68.0703 7.02782 68.0441 7.34888 68.0632C7.6621 68.0839 7.9413 68.16 8.1865 68.2914C8.42385 68.4244 8.61695 68.623 8.7658 68.8871L13.2795 66.6083L13.5281 67.8905L9.29972 70.0041L9.50042 71.0393L13.9706 70.1727L14.2283 71.5019ZM8.54757 71.2241L8.4495 70.7182C8.37652 70.3418 8.27017 70.0451 8.13044 69.828C7.99072 69.611 7.7965 69.4696 7.54778 69.4039C7.29907 69.3382 6.97081 69.3449 6.563 69.424C6.00619 69.5319 5.62599 69.7114 5.42241 69.9625C5.21098 70.215 5.16381 70.6432 5.28089 71.2471L5.39492 71.8353L8.54757 71.2241Z" fill="#B68C2D"/>
<path d="M13.1591 65.6306L3.47021 66.4442L3.15482 62.6883L4.15959 62.6039L4.36149 65.0082L7.56719 64.739L7.40347 62.7892L8.3604 62.7089L8.52412 64.6586L12.0767 64.3603L11.8728 61.9321L12.8417 61.8507L13.1591 65.6306Z" fill="#B68C2D"/>
<path d="M12.9745 58.7264C12.9629 59.2864 12.8333 59.752 12.5855 60.1231C12.3379 60.4862 12.0001 60.7594 11.5721 60.9427C11.1441 61.1259 10.6498 61.2278 10.0891 61.2483L9.78974 60.0415C10.1343 60.0246 10.4674 59.9794 10.789 59.906C11.1109 59.8246 11.3778 59.69 11.5898 59.5023C11.7938 59.3144 11.8993 59.0484 11.9064 58.7044C11.9136 58.3523 11.823 58.0863 11.6347 57.9064C11.4384 57.7182 11.1563 57.6204 10.7883 57.6128C10.3482 57.6037 9.99412 57.6965 9.72598 57.8911C9.44983 58.0855 9.17262 58.3319 8.89433 58.6303L7.42057 60.2328C7.13395 60.5471 6.82506 60.7768 6.4939 60.9221C6.15474 61.0672 5.74113 61.1347 5.25308 61.1247C4.54102 61.11 3.99317 60.8946 3.60953 60.4785C3.2259 60.0624 3.04133 59.5023 3.05584 58.7982C3.06375 58.4142 3.12267 58.0792 3.23262 57.7933C3.33472 57.4993 3.49176 57.2584 3.70374 57.0707C3.91588 56.8749 4.18312 56.7243 4.50545 56.6189C4.81996 56.5053 5.18964 56.4329 5.6145 56.4016L5.9028 57.5602C5.58228 57.5776 5.28926 57.6196 5.02375 57.6861C4.75024 57.7526 4.53159 57.8761 4.36778 58.0568C4.19614 58.2294 4.10686 58.4837 4.09994 58.8197C4.09302 59.1558 4.17959 59.4217 4.35965 59.6175C4.53187 59.8051 4.794 59.9026 5.14604 59.9098C5.44207 59.9159 5.68708 59.8729 5.88107 59.7809C6.07523 59.6808 6.27463 59.5209 6.47927 59.301L7.95327 57.6865C8.28088 57.325 8.67159 57.0089 9.1254 56.7381C9.57121 56.4671 10.0981 56.3379 10.7062 56.3504C11.1863 56.3603 11.6002 56.4689 11.9481 56.6762C12.2881 56.8833 12.5464 57.1647 12.7232 57.5206C12.9001 57.8684 12.9839 58.2703 12.9745 58.7264Z" fill="#B68C2D"/>
<path d="M13.1535 54.5939L4.50967 53.4851L4.30043 55.1162L3.30031 54.9879L3.88528 50.4279L4.88539 50.5562L4.68226 52.1397L13.3261 53.2485L13.1535 54.5939Z" fill="#B68C2D"/>
<path d="M13.5458 51.6931L4.58941 47.4541L4.89034 46.185L14.7993 46.4069L14.5039 47.6528L12.0264 47.5204L11.5709 49.4416L13.8385 50.4589L13.5458 51.6931ZM10.6692 49.0433L11.0419 47.4714L6.60423 47.2555L10.6692 49.0433Z" fill="#B68C2D"/>
<path d="M15.9241 43.5255C15.6781 44.1853 15.3581 44.6425 14.9643 44.8971C14.5704 45.1516 14.1136 45.2546 13.5936 45.2059C13.0662 45.1544 12.4839 45.0098 11.8465 44.7722L5.80678 42.52L6.25972 41.3053L12.3557 43.5785C12.7456 43.7238 13.1116 43.8304 13.4535 43.8981C13.7955 43.9659 14.0924 43.9485 14.3442 43.8459C14.5987 43.7359 14.7917 43.5046 14.9231 43.1522C15.0573 42.7923 15.0629 42.4912 14.9397 42.2488C14.8166 42.0065 14.6036 41.7989 14.3007 41.6262C13.9979 41.4535 13.6515 41.2945 13.2616 41.1491L7.16562 38.8759L7.61438 37.6725L13.6541 39.9246C14.2915 40.1623 14.8263 40.4343 15.2587 40.7407C15.6835 41.0444 15.9614 41.4213 16.0925 41.8716C16.2263 42.3143 16.1702 42.8657 15.9241 43.5255Z" fill="#B68C2D"/>
<path d="M17.1966 40.0652L8.599 35.5245L9.51274 33.7943C9.81545 33.2212 10.1437 32.7882 10.4974 32.4954C10.8441 32.1988 11.234 32.0518 11.6671 32.0542C12.0968 32.0459 12.5841 32.1856 13.129 32.4734C13.4616 32.649 13.7472 32.8451 13.9858 33.0616C14.2173 33.2744 14.3875 33.5091 14.4963 33.7656C14.5981 34.0185 14.6241 34.2947 14.5745 34.5943L19.5286 35.6496L18.9176 36.8066L14.2899 35.8015L13.7966 36.7355L17.8301 38.8657L17.1966 40.0652ZM12.9369 36.2815L13.1779 35.8251C13.3573 35.4854 13.4606 35.187 13.4878 34.9299C13.515 34.6727 13.4521 34.4404 13.2992 34.233C13.1464 34.0256 12.8859 33.8247 12.518 33.6303C12.0156 33.365 11.6061 33.2664 11.2896 33.3345C10.9659 33.3989 10.6603 33.7035 10.3725 34.2484L10.0922 34.7791L12.9369 36.2815Z" fill="#B68C2D"/>
<path d="M19.7426 35.3047L12.9331 28.0638L13.6793 26.989L22.8505 30.8281L22.118 31.8831L19.8532 30.8515L18.7237 32.4784L20.4683 34.2595L19.7426 35.3047ZM18.0277 31.776L18.9518 30.4449L14.8873 28.6168L18.0277 31.776Z" fill="#B68C2D"/>
<path d="M23.2394 30.3773L15.9855 23.9029L16.6009 23.2134L23.2574 25.4539L18.4393 21.1536L19.1907 20.3118L26.4446 26.7862L25.8691 27.431L19.0544 25.0974L24.0067 29.5176L23.2394 30.3773Z" fill="#B68C2D"/>
<path d="M28.1095 25.1694L22.2706 18.6334L21.0373 19.7352L20.3617 18.9789L23.8097 15.8987L24.4853 16.6549L23.2879 17.7246L29.1268 24.2606L28.1095 25.1694Z" fill="#B68C2D"/>
<path d="M41.6394 16.6265C41.124 16.8506 40.6453 16.9274 40.2033 16.857C39.7686 16.7834 39.3781 16.5899 39.0317 16.2765C38.6854 15.9631 38.3854 15.5551 38.1319 15.0526L39.1066 14.2743C39.2663 14.5812 39.447 14.866 39.6487 15.1284C39.8577 15.3877 40.0922 15.5747 40.3521 15.6893C40.6088 15.7965 40.8955 15.7813 41.2121 15.6436C41.536 15.5028 41.7405 15.3088 41.8257 15.0617C41.915 14.804 41.886 14.5059 41.7388 14.1672C41.5627 13.7623 41.3299 13.4783 41.0402 13.3154C40.7473 13.1451 40.4065 12.9956 40.0179 12.867L37.9398 12.1947C37.5333 12.0651 37.1945 11.8798 36.9234 11.6387C36.6491 11.3903 36.4143 11.0416 36.219 10.5925C35.9341 9.93725 35.901 9.34763 36.1196 8.82363C36.3382 8.29963 36.7715 7.89678 37.4194 7.6151C37.7728 7.46145 38.1028 7.37486 38.4094 7.35534C38.7202 7.32525 39.0056 7.3675 39.2655 7.4821C39.5328 7.59349 39.782 7.77403 40.0131 8.0237C40.2484 8.26282 40.4693 8.56947 40.6757 8.94367L39.7404 9.69174C39.5903 9.40685 39.4293 9.15733 39.2574 8.94319C39.0823 8.72168 38.8781 8.57411 38.6447 8.50049C38.4155 8.4163 38.1463 8.44143 37.8371 8.57587C37.5279 8.71031 37.3217 8.90061 37.2187 9.14677C37.1198 9.38236 37.1407 9.66213 37.2816 9.98607C37.4 10.2585 37.5418 10.4638 37.707 10.6021C37.8795 10.7372 38.1089 10.8519 38.395 10.9464L40.4842 11.6138C40.9509 11.761 41.4027 11.9848 41.8396 12.285C42.2733 12.5779 42.6118 13.0041 42.8551 13.5636C43.0472 14.0054 43.1216 14.4282 43.0784 14.8322C43.032 15.2288 42.8836 15.5822 42.6333 15.8924C42.3903 16.1993 42.059 16.4441 41.6394 16.6265Z" fill="#B68C2D"/>
<path d="M46.8132 14.8338C46.1372 15.0315 45.5795 15.0487 45.1399 14.8854C44.7003 14.7221 44.3444 14.4176 44.0723 13.9719C43.798 13.5185 43.5654 12.9654 43.3745 12.3125L41.5653 6.12566L42.8096 5.7618L44.6356 12.0063C44.7524 12.4057 44.886 12.7627 45.0363 13.0772C45.1867 13.3918 45.3783 13.6192 45.6111 13.7596C45.8516 13.8977 46.1523 13.914 46.5133 13.8084C46.882 13.7006 47.1266 13.5249 47.2471 13.2812C47.3676 13.0375 47.4064 12.7427 47.3636 12.3967C47.3208 12.0507 47.241 11.678 47.1242 11.2786L45.2982 5.03409L46.531 4.6736L48.3401 10.8605C48.5311 11.5134 48.6331 12.1047 48.6463 12.6344C48.6572 13.1565 48.5215 13.6047 48.2391 13.9791C47.9644 14.3513 47.4891 14.6362 46.8132 14.8338Z" fill="#B68C2D"/>
<path d="M50.3342 13.7701L48.8758 4.14432L49.7908 4.00568L53.4928 9.98496L52.5241 3.59155L53.6411 3.4223L55.0996 13.0481L54.2439 13.1777L50.4794 7.02557L51.4751 13.5972L50.3342 13.7701Z" fill="#B68C2D"/>
<path d="M58.6102 12.9795C58.0504 12.9991 57.5784 12.8956 57.194 12.6688C56.8177 12.4418 56.5262 12.1198 56.3194 11.7026C56.1125 11.2855 55.9833 10.7976 55.9317 10.2389L57.1199 9.87286C57.156 10.2159 57.2196 10.546 57.3108 10.8631C57.41 11.1799 57.5593 11.4389 57.7585 11.6401C57.9575 11.8333 58.2289 11.9239 58.5728 11.9118C58.9247 11.8995 59.1852 11.7942 59.3544 11.5961C59.5314 11.3897 59.6134 11.1026 59.6004 10.7347C59.585 10.2948 59.4727 9.94644 59.2635 9.68953C59.054 9.42463 58.7925 9.16156 58.4791 8.90031L56.7971 7.51801C56.4674 7.24932 56.2208 6.9537 56.0573 6.63113C55.8936 6.30057 55.8031 5.89136 55.786 5.40351C55.761 4.69173 55.9456 4.13274 56.3397 3.72655C56.7338 3.32036 57.2828 3.10491 57.9866 3.08021C58.3705 3.06674 58.7082 3.10693 58.9997 3.2008C59.299 3.28638 59.5483 3.42977 59.7475 3.63097C59.9547 3.83189 60.12 4.09034 60.2432 4.40631C60.3741 4.714 60.4669 5.07908 60.5218 5.50155L59.3811 5.85387C59.3459 5.53481 59.2877 5.24459 59.2064 4.98319C59.1249 4.7138 58.9894 4.50236 58.7998 4.34886C58.618 4.18709 58.3591 4.1121 58.0232 4.12389C57.6873 4.13568 57.4266 4.23691 57.2411 4.42759C57.0634 4.60999 56.9806 4.87714 56.993 5.22903C57.0034 5.52494 57.0599 5.76718 57.1626 5.95575C57.2733 6.14404 57.4442 6.33423 57.6751 6.52631L59.3691 7.90819C59.7482 8.21518 60.0856 8.58769 60.3812 9.02573C60.6766 9.45577 60.8349 9.9747 60.8563 10.5825C60.8731 11.0624 60.7877 11.4817 60.6002 11.8407C60.4123 12.1916 60.1456 12.4652 59.8002 12.6615C59.4628 12.8575 59.0661 12.9635 58.6102 12.9795Z" fill="#B68C2D"/>
<path d="M61.6826 12.8518L62.3558 3.15211L66.1159 3.41306L66.0461 4.41896L63.6391 4.25191L63.4164 7.46118L65.3683 7.59665L65.3018 8.55464L63.3499 8.41917L63.1031 11.9757L65.534 12.1444L65.4667 13.1144L61.6826 12.8518Z" fill="#B68C2D"/>
<path d="M67.3751 13.4205L68.8465 4.83097L67.2256 4.55332L67.3958 3.55949L71.9272 4.33568L71.757 5.32952L70.1834 5.05998L68.7121 13.6496L67.3751 13.4205Z" fill="#B68C2D"/>
<path d="M75.6302 15.5524C75.0981 15.3675 74.6929 15.099 74.4149 14.7468C74.1444 14.3972 73.9879 13.9893 73.9454 13.523C73.9029 13.0567 73.9589 12.5522 74.1133 12.0095L75.3606 12.0977C75.2699 12.4325 75.2097 12.7652 75.1801 13.0957C75.1581 13.4288 75.204 13.7259 75.3178 13.987C75.4342 14.2404 75.6559 14.4239 75.9828 14.5375C76.3173 14.6536 76.5999 14.6496 76.8305 14.5252C77.0714 14.3959 77.2525 14.1564 77.374 13.8067C77.5193 13.3885 77.5404 13.021 77.4375 12.7041C77.3372 12.3796 77.1876 12.038 76.9885 11.6791L75.9129 9.77198C75.7013 9.40027 75.5773 9.03348 75.5412 8.67161C75.5076 8.30213 75.5714 7.88552 75.7325 7.42178C75.9675 6.74517 76.3436 6.28795 76.8607 6.05012C77.3778 5.81229 77.9709 5.80957 78.6399 6.04196C79.0048 6.16872 79.307 6.32905 79.5463 6.52295C79.7959 6.71188 79.9776 6.93687 80.0914 7.19791C80.2128 7.46159 80.2739 7.76397 80.2747 8.10503C80.2857 8.44114 80.2403 8.81725 80.1383 9.23338L78.9406 9.14959C79.0234 8.83758 79.0742 8.54425 79.0929 8.2696C79.1143 7.98736 79.064 7.73984 78.9419 7.52705C78.8301 7.30931 78.6146 7.14498 78.2953 7.03406C77.976 6.92315 77.6947 6.92343 77.4516 7.0349C77.2186 7.14142 77.044 7.36192 76.9278 7.69643C76.8301 7.97771 76.7952 8.22543 76.823 8.43957C76.8585 8.65636 76.9496 8.89676 77.0965 9.16076L78.1834 11.0719C78.4275 11.4974 78.6086 11.9693 78.7268 12.4875C78.8477 12.998 78.8077 13.5422 78.607 14.12C78.4486 14.5761 78.2162 14.9384 77.91 15.2069C77.6064 15.4678 77.2569 15.6275 76.8617 15.6862C76.4741 15.7475 76.0636 15.7029 75.6302 15.5524Z" fill="#B68C2D"/>
<path d="M80.654 17.7017C80.0634 17.413 79.648 17.0671 79.4078 16.6641C79.1676 16.2611 79.0757 15.8102 79.1322 15.3113C79.1922 14.8052 79.3631 14.2641 79.6447 13.6879L81.2662 10.3713C81.5479 9.79513 81.8647 9.33875 82.2167 9.00217C82.5793 8.6619 82.9863 8.46824 83.4377 8.42119C83.8997 8.37045 84.4261 8.48945 85.0166 8.77818C85.6072 9.06691 86.0208 9.40741 86.2573 9.79969C86.4939 10.192 86.5874 10.6303 86.538 11.1148C86.4957 11.6028 86.3338 12.1349 86.0521 12.7111L84.4253 16.0385C84.1472 16.6075 83.825 17.0657 83.4588 17.4132C83.0998 17.7641 82.6894 17.974 82.2275 18.0426C81.7691 18.1041 81.2446 17.9905 80.654 17.7017ZM81.1241 16.7402C81.4482 16.8987 81.7247 16.9536 81.9538 16.9049C82.1863 16.8491 82.3895 16.7164 82.5633 16.5069C82.7407 16.2902 82.9085 16.0198 83.067 15.6957L84.942 11.8605C85.1004 11.5364 85.2072 11.245 85.2622 10.9864C85.3208 10.7205 85.2972 10.4859 85.1914 10.2825C85.0891 10.0719 84.876 9.88732 84.5519 9.72887C84.2278 9.57042 83.9476 9.51376 83.7114 9.5589C83.4858 9.60035 83.2862 9.72583 83.1124 9.93533C82.9421 10.1376 82.7777 10.4008 82.6193 10.7249L80.7443 14.5601C80.5858 14.8842 80.4756 15.1828 80.4135 15.4558C80.3549 15.7217 80.375 15.9635 80.4737 16.1813C80.5832 16.3955 80.8 16.5818 81.1241 16.7402Z" fill="#B68C2D"/>
<path d="M83.9037 19.2245L89.2514 11.0572L90.8949 12.1334C91.4394 12.4899 91.8414 12.8587 92.1008 13.2399C92.3647 13.6143 92.475 14.0179 92.4318 14.4505C92.3997 14.8809 92.2142 15.3549 91.8753 15.8725C91.6684 16.1884 91.4455 16.4555 91.2067 16.6736C90.9722 16.8851 90.7216 17.0331 90.4549 17.1178C90.1925 17.1957 89.914 17.1958 89.6192 17.118L88.0983 21.971L86.9992 21.2514L88.4392 16.72L87.5519 16.139L85.0431 19.9706L83.9037 19.2245ZM88.0867 15.3223L88.5202 15.6061C88.8429 15.8174 89.1315 15.9487 89.3859 16.0001C89.6404 16.0515 89.8785 16.0105 90.1003 15.8772C90.322 15.7439 90.5473 15.5024 90.7762 15.1529C91.0887 14.6756 91.2258 14.2756 91.1875 13.9528C91.1535 13.6232 90.8778 13.289 90.3602 12.9501L89.856 12.62L88.0867 15.3223Z" fill="#B68C2D"/>
<path d="M88.7964 22.6247L94.998 15.1363L97.9009 17.5403L97.2578 18.3169L95.3996 16.778L93.3477 19.2557L94.8546 20.5036L94.2421 21.2432L92.7352 19.9953L90.4613 22.741L92.338 24.2953L91.7178 25.0441L88.7964 22.6247Z" fill="#B68C2D"/>
<path d="M92.3139 25.5817L99.3151 18.8349L99.9565 19.5004L97.2221 25.9697L101.872 21.4884L102.655 22.3009L95.654 29.0477L95.0543 28.4254L97.8934 21.8053L93.1136 26.4115L92.3139 25.5817Z" fill="#B68C2D"/>
<path d="M97.0801 30.8661L104.003 25.573L103.004 24.2665L103.805 23.6541L106.598 27.3064L105.797 27.9188L104.827 26.6505L97.904 31.9436L97.0801 30.8661Z" fill="#B68C2D"/>
<path d="M100.469 36.0222C100.135 35.4579 99.9775 34.9418 99.9977 34.474C100.018 34.0062 100.188 33.5796 100.509 33.1943C100.836 32.8049 101.275 32.4469 101.825 32.1204L104.995 30.241C105.545 29.9145 106.059 29.7072 106.537 29.6191C107.026 29.5338 107.472 29.5951 107.874 29.803C108.288 30.0137 108.662 30.4012 108.996 30.9656C109.331 31.5299 109.49 32.0405 109.472 32.4974C109.455 32.9542 109.293 33.3712 108.986 33.7484C108.684 34.1324 108.257 34.4877 107.707 34.8142L104.527 36.6997C103.983 37.0222 103.464 37.2281 102.968 37.3174C102.476 37.4137 102.019 37.364 101.596 37.1684C101.179 36.9686 100.804 36.5866 100.469 36.0222ZM101.388 35.4774C101.572 35.7871 101.772 35.9844 101.99 36.0692C102.215 36.1499 102.457 36.1505 102.717 36.0709C102.983 35.9872 103.272 35.8535 103.581 35.6698L107.246 33.4965C107.556 33.3129 107.804 33.1282 107.992 32.9426C108.186 32.7528 108.295 32.5441 108.318 32.3165C108.348 32.0847 108.272 31.814 108.088 31.5043C107.904 31.1946 107.701 30.9939 107.48 30.9022C107.269 30.8133 107.033 30.8086 106.774 30.8883C106.521 30.9638 106.24 31.0934 105.93 31.2771L102.265 33.4503C101.955 33.634 101.7 33.8227 101.499 34.0165C101.304 34.2063 101.188 34.4191 101.152 34.6549C101.126 34.8935 101.204 35.1677 101.388 35.4774Z" fill="#B68C2D"/>
<path d="M103.389 41.3641L112.5 37.9686L113.183 39.802C113.409 40.4094 113.514 40.9426 113.497 41.4015C113.488 41.8576 113.338 42.2465 113.048 42.5681C112.768 42.8944 112.34 43.1651 111.762 43.3803C111.41 43.5117 111.073 43.5943 110.753 43.6284C110.44 43.6596 110.152 43.6304 109.888 43.5409C109.631 43.4486 109.408 43.2842 109.217 43.0478L105.133 46.0433L104.676 44.8173L108.506 42.032L108.137 41.0422L103.862 42.6352L103.389 41.3641ZM109.048 40.7026L109.228 41.1863C109.362 41.5462 109.516 41.8219 109.69 42.0133C109.864 42.2048 110.079 42.3124 110.336 42.3364C110.592 42.3603 110.915 42.2996 111.305 42.1543C111.838 41.9559 112.184 41.7159 112.344 41.4343C112.511 41.1499 112.487 40.719 112.272 40.1416L112.062 39.5792L109.048 40.7026Z" fill="#B68C2D"/>
<path d="M105.354 46.9816L114.785 44.648L115.69 48.3041L114.712 48.5461L114.133 46.2058L111.012 46.9778L111.482 48.8757L110.55 49.1062L110.081 47.2083L106.623 48.0639L107.207 50.4276L106.264 50.6609L105.354 46.9816Z" fill="#B68C2D"/>
<path d="M106.642 53.7612C106.564 53.2066 106.617 52.7264 106.802 52.3204C106.988 51.9224 107.278 51.5986 107.671 51.3491C108.064 51.0995 108.536 50.9197 109.086 50.8096L109.575 51.9526C109.237 52.0245 108.916 52.1225 108.61 52.2466C108.305 52.3785 108.064 52.5542 107.885 52.7734C107.713 52.9916 107.652 53.271 107.7 53.6116C107.749 53.9602 107.881 54.2082 108.096 54.3556C108.32 54.5098 108.614 54.5612 108.979 54.5096C109.414 54.448 109.749 54.2997 109.982 54.0647C110.224 53.8285 110.458 53.5409 110.685 53.2017L111.882 51.3839C112.114 51.0278 112.382 50.7515 112.686 50.555C112.997 50.3574 113.395 50.2245 113.878 50.1561C114.583 50.0564 115.158 50.1811 115.604 50.5303C116.049 50.8794 116.321 51.4026 116.42 52.0998C116.473 52.48 116.469 52.8201 116.406 53.1198C116.353 53.4264 116.236 53.6893 116.057 53.9086C115.879 54.1358 115.64 54.3273 115.338 54.483C115.046 54.6455 114.693 54.7763 114.279 54.8753L113.808 53.7781C114.122 53.7095 114.404 53.6211 114.656 53.5128C114.915 53.4035 115.111 53.2464 115.244 53.0418C115.385 52.844 115.433 52.5787 115.386 52.246C115.339 51.9132 115.211 51.6647 115.002 51.5003C114.801 51.3427 114.527 51.2886 114.179 51.3379C113.885 51.3793 113.651 51.4611 113.474 51.583C113.298 51.7129 113.127 51.9027 112.96 52.1526L111.765 53.9823C111.499 54.3916 111.164 54.7662 110.76 55.1062C110.363 55.4451 109.864 55.6571 109.262 55.7423C108.787 55.8095 108.361 55.7687 107.984 55.62C107.615 55.4701 107.315 55.2337 107.084 54.9109C106.853 54.596 106.706 54.2128 106.642 53.7612Z" fill="#B68C2D"/>
<path d="M107.11 57.8684L115.82 57.6008L115.77 55.957L116.777 55.9261L116.919 60.5213L115.911 60.5523L115.862 58.9566L107.151 59.2242L107.11 57.8684Z" fill="#B68C2D"/>
<path d="M107.217 60.8132L116.766 63.5727L116.672 64.8777L106.825 66.2487L106.917 64.9677L109.392 64.701L109.534 62.7256L107.126 62.0823L107.217 60.8132ZM110.491 62.9752L110.374 64.5915L114.803 64.0929L110.491 62.9752Z" fill="#B68C2D"/>
<path d="M106.137 69.2562C106.274 68.5655 106.516 68.063 106.864 67.7486C107.212 67.4342 107.647 67.2594 108.168 67.2242C108.697 67.1905 109.295 67.2399 109.962 67.3723L116.284 68.6277L116.032 69.8992L109.65 68.6322C109.242 68.5512 108.864 68.5046 108.516 68.4925C108.167 68.4805 107.877 68.5452 107.645 68.6868C107.411 68.8362 107.258 69.0954 107.184 69.4643C107.11 69.8411 107.152 70.1392 107.313 70.3587C107.473 70.5782 107.717 70.7489 108.043 70.8709C108.37 70.9928 108.737 71.0943 109.145 71.1754L115.527 72.4424L115.277 73.7022L108.954 72.4469C108.287 72.3144 107.716 72.1316 107.24 71.8984C106.772 71.6668 106.437 71.3392 106.235 70.9158C106.032 70.5002 105.999 69.947 106.137 69.2562Z" fill="#B68C2D"/>
<path d="M105.461 72.879L114.698 75.9904L114.072 77.8491C113.864 78.4649 113.609 78.9461 113.306 79.2927C113.011 79.6418 112.649 79.85 112.22 79.9171C111.796 79.9944 111.291 79.9345 110.706 79.7373C110.349 79.6169 110.035 79.4688 109.764 79.2929C109.5 79.1196 109.294 78.9147 109.145 78.6783C109.004 78.4445 108.934 78.1754 108.935 77.871L103.863 77.6229L104.282 76.3799L109.022 76.6307L109.36 75.6272L105.027 74.1676L105.461 72.879ZM110.284 75.9384L110.119 76.4287C109.996 76.7936 109.942 77.1055 109.956 77.3643C109.971 77.6231 110.07 77.8428 110.255 78.0235C110.439 78.2042 110.729 78.3612 111.125 78.4943C111.664 78.6761 112.085 78.7079 112.388 78.5896C112.698 78.4739 112.951 78.1234 113.148 77.538L113.34 76.9678L110.284 75.9384Z" fill="#B68C2D"/>
<path d="M103.683 77.9763L111.558 84.0408L110.993 85.2206L101.327 82.8906L101.883 81.7324L104.283 82.3903L105.139 80.6043L103.133 79.1237L103.683 77.9763ZM105.938 81.1869L105.237 82.6482L109.541 83.806L105.938 81.1869Z" fill="#B68C2D"/>
<path d="M101.017 83.3928L109.207 88.6341L108.709 89.4126L101.781 88.2567L107.22 91.738L106.612 92.6883L98.4227 87.447L98.8886 86.7191L105.987 87.9417L100.396 84.3634L101.017 83.3928Z" fill="#B68C2D"/>
<path d="M97.0179 89.2839L103.815 94.7742L104.851 93.4914L105.638 94.1267L102.742 97.7127L101.955 97.0774L102.961 95.8322L96.1634 90.3419L97.0179 89.2839Z" fill="#B68C2D"/>
<path d="M62.4563 56.3249C62.4848 55.9065 62.5388 55.4902 62.6179 55.0784C62.6855 54.7278 62.7718 54.381 62.8764 54.0396C62.9851 53.6072 63.1399 53.1878 63.3381 52.7884C63.6354 52.2021 64.0252 51.6674 64.4923 51.2049C65.5227 50.1759 66.8792 49.5376 68.3289 49.3997H68.4581C69.319 49.3145 70.1529 49.0524 70.9076 48.6297C71.6624 48.207 72.3216 47.633 72.8441 46.9436C72.5568 47.9976 72.1639 49.02 71.6714 49.9953C71.4914 50.3554 71.2975 50.7016 71.0851 51.0525C70.8727 51.4034 70.6973 51.6665 70.4895 51.9759C69.9415 52.7626 69.3234 53.4981 68.6428 54.1735C68.2302 54.5889 67.7956 54.9819 67.3409 55.3508C68.2031 55.1917 69.0411 54.9217 69.8339 54.5474C68.3153 56.0409 66.36 57.0113 64.2522 57.3175C64.0352 57.3498 63.8182 57.3683 63.6013 57.3914C63.5755 56.5363 63.7261 55.685 64.0439 54.8907C64.3616 54.0964 64.8396 53.376 65.448 52.7746C65.6831 52.5379 65.938 52.3217 66.2097 52.1282C65.4291 52.4443 64.7208 52.9155 64.1276 53.5133C63.6374 54.0006 63.2332 54.5672 62.9318 55.1892C62.8494 55.353 62.7754 55.521 62.7102 55.6924C62.614 55.8984 62.5293 56.1096 62.4563 56.3249ZM47.1793 73.1162C47.3546 72.886 47.5442 72.667 47.7471 72.4606C48.7729 71.4336 50.1248 70.7968 51.5699 70.6601H51.6714C52.7149 70.5554 53.7154 70.1902 54.5809 69.5981C55.4465 69.006 56.1495 68.2059 56.6253 67.2714C56.8255 66.8729 56.9803 66.4532 57.0869 66.0202C57.1937 65.6794 57.28 65.3325 57.3455 64.9814C57.4246 64.5696 57.4785 64.1533 57.5071 63.7349C57.4471 63.9565 57.3732 64.1966 57.2947 64.3997C57.2303 64.573 57.1564 64.7425 57.0731 64.9075C56.77 65.5271 56.3659 66.092 55.8773 66.5788C55.281 67.175 54.5715 67.6459 53.7905 67.9639C54.0619 67.7663 54.3181 67.5487 54.5569 67.3129C55.2853 66.5854 55.8229 65.6894 56.122 64.7044C56.3171 64.0534 56.4059 63.3753 56.3852 62.6961C56.1728 62.6961 55.9512 62.7376 55.7342 62.77C53.6277 63.0762 51.6739 64.0466 50.1571 65.5401C50.948 65.1607 51.7867 64.8905 52.6502 64.7367C52.1919 65.1015 51.7556 65.493 51.3436 65.9094C50.6641 66.5857 50.0461 67.3211 49.4969 68.107C49.2845 68.4071 49.086 68.7118 48.8967 69.0304C48.7074 69.3489 48.4905 69.7275 48.3104 70.083C47.8191 71.0603 47.4263 72.0842 47.1377 73.1393L47.1793 73.1162ZM46.9115 47.2021C47.6015 47.7251 48.1759 48.3851 48.5985 49.1406C49.0212 49.8962 49.2831 50.7311 49.3676 51.5927C49.3654 51.625 49.3654 51.6574 49.3676 51.6896C49.5048 53.1292 50.1419 54.4752 51.1682 55.4939C51.9504 56.2808 52.9293 56.8436 54.0029 57.1236C54.3444 57.2267 54.6912 57.3114 55.0417 57.3775C55.4551 57.4566 55.8729 57.5106 56.2929 57.5391C56.0657 57.4816 55.8422 57.4107 55.6234 57.3268C55.452 57.2615 55.284 57.1876 55.1202 57.1051C53.7335 56.424 52.6469 55.2552 52.0685 53.8226C52.2661 54.0939 52.4837 54.3501 52.7194 54.589C53.4469 55.3174 54.3429 55.855 55.3279 56.1541C55.9784 56.3516 56.6569 56.4405 57.3363 56.4172C57.3363 56.2049 57.2947 55.9833 57.2624 55.7709C56.9571 53.6628 55.9866 51.7072 54.4923 50.1892C54.8674 50.9817 55.1374 51.8198 55.2956 52.6822C54.9281 52.2249 54.5351 51.7887 54.1183 51.3757C53.4437 50.6961 52.7098 50.0781 51.9254 49.529C51.6253 49.3166 51.3159 49.1181 51.002 48.9288C50.6881 48.7395 50.3049 48.5271 49.9447 48.3424C48.9693 47.8504 47.9469 47.4576 46.893 47.1698L46.9115 47.2021ZM64.6631 63.8688C64.0125 63.672 63.3343 63.5816 62.6548 63.601C62.6548 63.818 62.6964 64.035 62.7287 64.252C63.034 66.3601 64.0045 68.3156 65.4988 69.8337C65.1237 69.0411 64.8536 68.203 64.6954 67.3406C65.0638 67.7958 65.4552 68.2319 65.8681 68.6472C66.5444 69.3267 67.2798 69.9447 68.0657 70.4939C68.3658 70.7063 68.6705 70.9048 68.9891 71.0941C69.3076 71.2834 69.6862 71.4957 70.0417 71.6758C71.0181 72.1705 72.0421 72.565 73.098 72.8531C72.8678 72.6778 72.6488 72.4881 72.4424 72.2852C71.4164 71.2588 70.7798 69.9072 70.6419 68.4625C70.6419 68.4302 70.6419 68.3932 70.6419 68.3609C70.5158 67.0898 70.0036 65.8877 69.1741 64.9163C68.3446 63.9449 67.2377 63.2506 66.002 62.9269C65.6619 62.8244 65.3167 62.7396 64.9678 62.673C64.5548 62.5917 64.1368 62.5377 63.7167 62.5114C63.9425 62.5682 64.1645 62.6392 64.3815 62.7238C64.5548 62.7882 64.7243 62.8621 64.8893 62.9454C66.2747 63.6261 67.361 64.793 67.9411 66.2233C67.7446 65.9526 67.5269 65.6978 67.2901 65.4616C66.564 64.7109 65.6606 64.1552 64.6631 63.8457V63.8688ZM41.6807 60.2123C41.9668 60.1734 42.2552 60.1534 42.544 60.1522C43.9947 60.1503 45.4006 60.6548 46.5191 61.5788L46.5929 61.6435C47.7098 62.5628 49.1122 63.064 50.5588 63.0608C51.6672 63.0577 52.7551 62.7615 53.7121 62.2021C54.0305 62.0374 54.3388 61.854 54.6354 61.6527C54.9836 61.4168 55.3167 61.1593 55.6326 60.8817C55.4317 61.0007 55.2235 61.1071 55.0094 61.2003C54.8432 61.2741 54.6724 61.3434 54.4969 61.4034C53.0352 61.9031 51.4405 61.8455 50.0186 61.2418C50.3485 61.2937 50.6819 61.3199 51.0158 61.3203C52.0445 61.3211 53.0576 61.069 53.966 60.5862C54.5646 60.2627 55.1084 59.8467 55.5772 59.3535C55.411 59.2104 55.2402 59.0765 55.0648 58.9426C53.3592 57.6698 51.2926 56.9728 49.1645 56.9528C49.9818 57.2513 50.7576 57.6532 51.4729 58.1485C50.8901 58.0875 50.3045 58.0567 49.7185 58.0562C48.7605 58.0568 47.8044 58.1402 46.8607 58.3055C46.5006 58.3701 46.1405 58.444 45.785 58.5317C45.4295 58.6195 45.0094 58.7395 44.6262 58.8641C43.6026 59.2063 42.6158 59.6502 41.6807 60.1892V60.2123ZM64.9724 58.8272C65.1433 58.7533 65.3141 58.6841 65.4895 58.6241C66.9512 58.1244 68.5459 58.1819 69.9678 58.7857C69.6379 58.7338 69.3045 58.7075 68.9706 58.7072C68.1158 58.7059 67.2699 58.8803 66.4853 59.2194C65.7006 59.5585 64.994 60.0551 64.4092 60.6785C64.5754 60.8171 64.7462 60.9509 64.9217 61.0848C66.6262 62.3597 68.6934 63.0569 70.8219 63.0747C69.9954 62.7808 69.2114 62.3787 68.4905 61.8789C69.0733 61.9401 69.6588 61.9709 70.2448 61.9713C71.2029 61.9728 72.1593 61.8894 73.1026 61.722C73.4627 61.6619 73.8182 61.5834 74.1737 61.4957C74.5292 61.408 74.954 61.288 75.3326 61.1633C76.3723 60.8228 77.3747 60.3773 78.3242 59.8337C78.0383 59.8748 77.7498 59.8949 77.4609 59.8937C76.01 59.8964 74.6039 59.3918 73.4858 58.4671L73.412 58.4025C72.5992 57.7397 71.6335 57.2911 70.6028 57.0976C69.5722 56.904 68.5095 56.9717 67.5117 57.2944C67.0867 57.4328 66.678 57.617 66.2928 57.8438C65.9744 58.0085 65.6661 58.192 65.3695 58.3932C65.0213 58.6292 64.6882 58.8867 64.3723 59.1642C64.5656 59.0334 64.766 58.9132 64.9724 58.8041V58.8272ZM58.1442 68.5225C58.0807 69.1051 58.0499 69.6908 58.0519 70.2769C58.0503 71.235 58.1337 72.1913 58.3012 73.1347C58.3612 73.4948 58.4397 73.8503 58.5274 74.2058C58.6151 74.5613 58.7351 74.986 58.8598 75.3646C59.2012 76.404 59.6467 77.4064 60.1894 78.3563C60.1485 78.0704 60.1284 77.7818 60.1294 77.493C60.1272 76.0408 60.6317 74.6333 61.556 73.5133C61.5762 73.486 61.5977 73.4598 61.6206 73.4348C62.2834 72.6221 62.732 71.6563 62.9255 70.6257C63.1191 69.595 63.0514 68.5323 62.7287 67.5345C62.5921 67.1088 62.4078 66.6999 62.1793 66.3157C62.0134 65.9979 61.83 65.6897 61.6299 65.3923C61.3929 65.0449 61.1354 64.7119 60.8589 64.3951C60.9758 64.5982 61.082 64.806 61.1774 65.0184C61.2513 65.1846 61.3206 65.36 61.3806 65.5354C61.8802 66.9971 61.8227 68.5918 61.219 70.0137C61.2711 69.6823 61.2973 69.3474 61.2975 69.0119C61.2981 68.1579 61.1234 67.3128 60.7843 66.5291C60.4453 65.7453 59.9489 65.0394 59.3261 64.4551C59.1876 64.6213 59.0537 64.7921 58.9198 64.9629C57.6454 66.6695 56.9484 68.738 56.93 70.8678C57.2242 70.0236 57.6328 69.2236 58.1442 68.4902V68.5225ZM59.8155 41.7081C59.8542 41.9943 59.8742 42.2827 59.8755 42.5714C59.878 44.0245 59.3716 45.4325 58.4443 46.5511L58.375 46.6296C57.7123 47.4414 57.2637 48.4064 57.0701 49.4363C56.8766 50.4662 56.9443 51.5283 57.267 52.5253C57.4064 52.9513 57.5906 53.3615 57.8164 53.7487C57.982 54.0676 58.167 54.3759 58.3704 54.6721C58.606 55.0205 58.8635 55.3536 59.1414 55.6693C59.0209 55.4684 58.913 55.2603 58.8182 55.0461C58.7444 54.8798 58.6797 54.709 58.6151 54.5336C58.1216 53.0694 58.1791 51.4755 58.7767 50.0507C58.7248 50.3821 58.6986 50.717 58.6982 51.0525C58.6976 51.9065 58.8722 52.7516 59.2113 53.5353C59.5504 54.3191 60.0467 55.025 60.6696 55.6093C60.8127 55.4431 60.9466 55.2769 61.0759 55.1015C62.3493 53.3961 63.0463 51.3294 63.0657 49.2012C62.7694 50.0194 62.3674 50.7955 61.8699 51.5096C61.9335 50.927 61.9643 50.3413 61.9623 49.7552C61.963 48.7973 61.8812 47.8412 61.7176 46.8974C61.653 46.5373 61.5745 46.1818 61.4868 45.8263C61.399 45.4708 61.279 45.0461 61.1544 44.6675C60.8086 43.6282 60.3601 42.626 59.8155 41.6758V41.7081Z" fill="url(#paint0_linear_1_1271)"/>
</g>
<defs>
<linearGradient id="paint0_linear_1_1271" x1="60.0001" y1="41.962" x2="60.0001" y2="78.6056" gradientUnits="userSpaceOnUse">
<stop stop-color="#EE4224"/>
<stop offset="0.06" stop-color="#E55025"/>
<stop offset="0.25" stop-color="#D56A27"/>
<stop offset="0.44" stop-color="#C87929"/>
<stop offset="0.63" stop-color="#BF822B"/>
<stop offset="0.82" stop-color="#BA882C"/>
<stop offset="1" stop-color="#B88A2D"/>
</linearGradient>
<clipPath id="clip0_1_1271">
<rect width="120" height="120.005" fill="white"/>
</clipPath>
</defs>
</svg>
