<svg width="24" height="24" viewBox="0 0 24 24" fill="none" xmlns="http://www.w3.org/2000/svg">
<path d="M22.8002 12C22.8002 9.74336 22.0934 7.54345 20.7789 5.70919C19.4645 3.87493 17.6086 2.49846 15.4717 1.77311C13.3349 1.04775 11.0245 1.00994 8.86512 1.665C6.7057 2.32005 4.8057 3.63505 3.43198 5.42533C2.05825 7.2156 1.27981 9.3912 1.20598 11.6466C1.13214 13.902 1.76663 16.1238 3.02032 18.0001C4.27402 19.8764 6.08394 21.3128 8.19589 22.1077C10.3078 22.9026 12.6157 23.016 14.7954 22.4319" stroke="#B68C2D" stroke-linecap="round"/>
<circle cx="12.0002" cy="12" r="4.8" stroke="#B68C2D"/>
<path d="M16.7998 8.3999V13.7999C16.7998 15.4568 18.143 16.7999 19.7998 16.7999V16.7999C21.4567 16.7999 22.7998 15.4568 22.7998 13.7999V11.9999" stroke="#B68C2D" stroke-linecap="round"/>
</svg>
