<svg width="50" height="50" viewBox="0 0 50 50" fill="none" xmlns="http://www.w3.org/2000/svg">
<path d="M25 1C38.2597 1 49 11.7403 49 25C49 38.2597 38.2597 49 25 49C11.7403 49 1 38.2597 1 25C1 11.7403 11.7403 1 25 1Z" stroke="#B68C2D"/>
<path d="M25 16L25.3556 15.6485L25 15.2887L24.6444 15.6485L25 16ZM24.5 34.213V34.713L25.5 34.713V34.213L24.5 34.213ZM34.3556 24.755L25.3556 15.6485L24.6444 16.3515L33.6444 25.458L34.3556 24.755ZM24.6444 15.6485L15.6444 24.755L16.3556 25.458L25.3556 16.3515L24.6444 15.6485ZM24.5 16V34.213L25.5 34.213V16L24.5 16Z" fill="#B68C2D"/>
</svg>
