<svg width="32" height="32" viewBox="0 0 32 32" fill="none" xmlns="http://www.w3.org/2000/svg">
<g clip-path="url(#clip0_110_1509)">
<path d="M16.0008 -0.0341797C7.1588 -0.0341797 -0.0332031 7.15782 -0.0332031 15.9998C-0.0332031 24.8418 7.1588 32.0338 16.0008 32.0338C24.8428 32.0338 32.0348 24.8418 32.0348 15.9998C32.0348 7.15782 24.8428 -0.0341797 16.0008 -0.0341797ZM16.0008 30.9658C7.7488 30.9658 1.0348 24.2518 1.0348 15.9998C1.0348 7.74782 7.7488 1.03382 16.0008 1.03382C24.2528 1.03382 30.9668 7.74782 30.9668 15.9998C30.9668 24.2518 24.2528 30.9658 16.0008 30.9658Z" fill="white"/>
<g clip-path="url(#clip1_110_1509)">
<path d="M22.1064 13.1975C22.1168 13.3375 22.1168 13.4767 22.1168 13.6159C22.1168 17.8759 18.8744 22.7847 12.9488 22.7847C11.1232 22.7847 9.4272 22.2559 8 21.3375C8.2592 21.3671 8.5088 21.3775 8.7784 21.3775C10.2288 21.381 11.6381 20.896 12.7792 20.0007C12.1067 19.9886 11.4549 19.7667 10.9146 19.3661C10.3743 18.9655 9.97263 18.4063 9.7656 17.7663C9.9648 17.7959 10.1648 17.8159 10.3744 17.8159C10.6632 17.8159 10.9536 17.7759 11.2232 17.7063C10.4934 17.559 9.83718 17.1634 9.36609 16.5869C8.89501 16.0104 8.63815 15.2885 8.6392 14.5439V14.5039C9.0688 14.7431 9.5672 14.8927 10.0952 14.9127C9.65287 14.6188 9.29018 14.22 9.03947 13.7518C8.78877 13.2836 8.65785 12.7606 8.6584 12.2295C8.6584 11.6311 8.8176 11.0823 9.0968 10.6039C9.90651 11.6 10.9164 12.4148 12.0611 12.9957C13.2057 13.5765 14.4596 13.9105 15.7416 13.9759C15.692 13.7359 15.6616 13.4871 15.6616 13.2375C15.6614 12.8143 15.7446 12.3952 15.9065 12.0041C16.0683 11.6131 16.3057 11.2578 16.6049 10.9585C16.9042 10.6592 17.2595 10.4219 17.6506 10.26C18.0416 10.0981 18.4608 10.0149 18.884 10.0151C19.812 10.0151 20.6496 10.4039 21.2384 11.0327C21.9598 10.8932 22.6516 10.6299 23.2832 10.2543C23.0427 10.999 22.539 11.6304 21.8664 12.0303C22.5062 11.9574 23.1315 11.7891 23.7216 11.5311C23.2809 12.1736 22.7348 12.737 22.1064 13.1975Z" fill="white"/>
</g>
</g>
<defs>
<clipPath id="clip0_110_1509">
<rect width="32" height="32" fill="white"/>
</clipPath>
<clipPath id="clip1_110_1509">
<rect width="16" height="12.8" fill="white" transform="translate(8 10)"/>
</clipPath>
</defs>
</svg>
