<svg width="32" height="32" viewBox="0 0 32 32" fill="none" xmlns="http://www.w3.org/2000/svg">
<path d="M16 0C7.17675 0 0 7.17675 0 16C0 24.8233 7.17675 32 16 32C24.8233 32 32 24.8233 32 16C32 7.17675 24.8233 0 16 0ZM16 31C7.7655 31 1 24.2345 1 16C1 7.7655 7.7655 1 16 1C24.2345 1 31 7.7655 31 16C31 24.2345 24.2345 31 16 31Z" fill="white"/>
<g clip-path="url(#clip0_110_1529)">
<path d="M23.1771 12.2331C23.0961 11.9326 22.9378 11.6585 22.718 11.4382C22.4982 11.2179 22.2245 11.0589 21.9242 10.9773C20.8106 10.6715 16.3554 10.6665 16.3554 10.6665C16.3554 10.6665 11.901 10.6615 10.7867 10.9538C10.4866 11.0392 10.2134 11.2004 9.99353 11.4218C9.77362 11.6432 9.61431 11.9174 9.53091 12.2182C9.23722 13.3318 9.23438 15.6414 9.23438 15.6414C9.23438 15.6414 9.23153 17.9625 9.52309 19.0647C9.68664 19.6742 10.1666 20.1556 10.7768 20.3198C11.9018 20.6256 16.3448 20.6306 16.3448 20.6306C16.3448 20.6306 20.7999 20.6356 21.9135 20.344C22.2139 20.2625 22.4879 20.1039 22.7083 19.8841C22.9286 19.6642 23.0878 19.3906 23.17 19.0903C23.4644 17.9774 23.4666 15.6685 23.4666 15.6685C23.4666 15.6685 23.4808 13.3467 23.1771 12.2331V12.2331ZM14.9304 17.7812L14.9339 13.5145L18.6367 15.6514L14.9304 17.7812V17.7812Z" fill="white"/>
</g>
<defs>
<clipPath id="clip0_110_1529">
<rect width="14.9334" height="10.6667" fill="white" transform="translate(8.5332 10.6665)"/>
</clipPath>
</defs>
</svg>
